<?xml version="1.0" encoding="utf-8"?>
<svg xmlns="http://www.w3.org/2000/svg" xmlns:xlink="http://www.w3.org/1999/xlink" width="504pt" height="259.2pt" viewBox="0 0 504 259.2" version="1.1"><defs><style type="text/css">*{stroke-linejoin: round; stroke-linecap: butt}</style></defs><path d="M 0 259.2 L 504 259.2 L 504 0 L 0 0 z" style="fill: #ffffff"/><path d="M 50.1 215.3 L 493.2 215.3 L 493.2 26.2 L 50.1 26.2 z" style="fill: #ffffff"/><defs><path id="m0559a1c9db" d="M 0 0 L 0 3.5" style="stroke: #000000; stroke-width: 0.8"/></defs><use xlink:href="#m0559a1c9db" x="70.3" y="215.3" style="stroke: #000000; stroke-width: 0.8"/><g transform="translate(64.7 231.7)"><text><tspan x="0" y="-0.7" style="font-size: 10px; font-family: 'DejaVu Sans'">2</tspan><tspan x="6.5" y="-4.8" style="font-size: 7px; font-family: 'DejaVu Sans'">6</tspan></text></g><use xlink:href="#m0559a1c9db" x="171" y="215.3" style="stroke: #000000; stroke-width: 0.8"/><g transform="translate(165.4 231.6)"><text><tspan x="0" y="-0.8" style="font-size: 10px; font-family: 'DejaVu Sans'">2</tspan><tspan x="6.5" y="-4.9" style="font-size: 7px; font-family: 'DejaVu Sans'">7</tspan></text></g><use xlink:href="#m0559a1c9db" x="271.7" y="215.3" style="stroke: #000000; stroke-width: 0.8"/><g transform="translate(266.1 231.7)"><text><tspan x="0" y="-0.7" style="font-size: 10px; font-family: 'DejaVu Sans'">2</tspan><tspan x="6.5" y="-4.8" style="font-size: 7px; font-family: 'DejaVu Sans'">8</tspan></text></g><use xlink:href="#m0559a1c9db" x="372.4" y="215.3" style="stroke: #000000; stroke-width: 0.8"/><g transform="translate(366.8 231.7)"><text><tspan x="0" y="-0.7" style="font-size: 10px; font-family: 'DejaVu Sans'">2</tspan><tspan x="6.5" y="-4.8" style="font-size: 7px; font-family: 'DejaVu Sans'">9</tspan></text></g><use xlink:href="#m0559a1c9db" x="473.1" y="215.3" style="stroke: #000000; stroke-width: 0.8"/><g transform="translate(465.2 231.7)"><text><tspan x="0" y="-0.7" style="font-size: 10px; font-family: 'DejaVu Sans'">2</tspan><tspan x="6.5" y="-4.8" style="font-size: 7px; font-family: 'DejaVu Sans'">1</tspan><tspan x="10.9" y="-4.8" style="font-size: 7px; font-family: 'DejaVu Sans'">0</tspan></text></g><text style="font-size: 10px; font-family: sans-serif; text-anchor: middle" x="271.7" y="245.7">sequence length</text><defs><path id="m51a7e0c42e" d="M 0 0 L -3.5 0" style="stroke: #000000; stroke-width: 0.8"/></defs><use xlink:href="#m51a7e0c42e" x="50.1" y="192.9" style="stroke: #000000; stroke-width: 0.8"/><g transform="translate(25.5 197.6)"><text><tspan x="0" y="-0.7" style="font-size: 10px; font-family: 'DejaVu Sans'">1</tspan><tspan x="6.4" y="-0.7" style="font-size: 10px; font-family: 'DejaVu Sans'">0</tspan><tspan x="12.8" y="-4.8" style="font-size: 7px; font-family: 'DejaVu Sans'">2</tspan></text></g><use xlink:href="#m51a7e0c42e" x="50.1" y="121.5" style="stroke: #000000; stroke-width: 0.8"/><g transform="translate(25.5 126.2)"><text><tspan x="0" y="-0.7" style="font-size: 10px; font-family: 'DejaVu Sans'">1</tspan><tspan x="6.4" y="-0.7" style="font-size: 10px; font-family: 'DejaVu Sans'">0</tspan><tspan x="12.8" y="-4.8" style="font-size: 7px; font-family: 'DejaVu Sans'">3</tspan></text></g><use xlink:href="#m51a7e0c42e" x="50.1" y="50.1" style="stroke: #000000; stroke-width: 0.8"/><g transform="translate(25.5 54.7)"><text><tspan x="0" y="-0.8" style="font-size: 10px; font-family: 'DejaVu Sans'">1</tspan><tspan x="6.4" y="-0.8" style="font-size: 10px; font-family: 'DejaVu Sans'">0</tspan><tspan x="12.8" y="-4.9" style="font-size: 7px; font-family: 'DejaVu Sans'">4</tspan></text></g><defs><path id="m81a02ff3e7" d="M 0 0 L -2 0" style="stroke: #000000; stroke-width: 0.6"/></defs><use xlink:href="#m81a02ff3e7" x="50.1" y="214.4" style="stroke: #000000; stroke-width: 0.6"/><use xlink:href="#m81a02ff3e7" x="50.1" y="208.7" style="stroke: #000000; stroke-width: 0.6"/><use xlink:href="#m81a02ff3e7" x="50.1" y="203.9" style="stroke: #000000; stroke-width: 0.6"/><use xlink:href="#m81a02ff3e7" x="50.1" y="199.8" style="stroke: #000000; stroke-width: 0.6"/><use xlink:href="#m81a02ff3e7" x="50.1" y="196.1" style="stroke: #000000; stroke-width: 0.6"/><use xlink:href="#m81a02ff3e7" x="50.1" y="171.4" style="stroke: #000000; stroke-width: 0.6"/><use xlink:href="#m81a02ff3e7" x="50.1" y="158.8" style="stroke: #000000; stroke-width: 0.6"/><use xlink:href="#m81a02ff3e7" x="50.1" y="149.9" style="stroke: #000000; stroke-width: 0.6"/><use xlink:href="#m81a02ff3e7" x="50.1" y="143" style="stroke: #000000; stroke-width: 0.6"/><use xlink:href="#m81a02ff3e7" x="50.1" y="137.3" style="stroke: #000000; stroke-width: 0.6"/><use xlink:href="#m81a02ff3e7" x="50.1" y="132.5" style="stroke: #000000; stroke-width: 0.6"/><use xlink:href="#m81a02ff3e7" x="50.1" y="128.4" style="stroke: #000000; stroke-width: 0.6"/><use xlink:href="#m81a02ff3e7" x="50.1" y="124.7" style="stroke: #000000; stroke-width: 0.6"/><use xlink:href="#m81a02ff3e7" x="50.1" y="100" style="stroke: #000000; stroke-width: 0.6"/><use xlink:href="#m81a02ff3e7" x="50.1" y="87.4" style="stroke: #000000; stroke-width: 0.6"/><use xlink:href="#m81a02ff3e7" x="50.1" y="78.5" style="stroke: #000000; stroke-width: 0.6"/><use xlink:href="#m81a02ff3e7" x="50.1" y="71.6" style="stroke: #000000; stroke-width: 0.6"/><use xlink:href="#m81a02ff3e7" x="50.1" y="65.9" style="stroke: #000000; stroke-width: 0.6"/><use xlink:href="#m81a02ff3e7" x="50.1" y="61.1" style="stroke: #000000; stroke-width: 0.6"/><use xlink:href="#m81a02ff3e7" x="50.1" y="57" style="stroke: #000000; stroke-width: 0.6"/><use xlink:href="#m81a02ff3e7" x="50.1" y="53.3" style="stroke: #000000; stroke-width: 0.6"/><use xlink:href="#m81a02ff3e7" x="50.1" y="28.6" style="stroke: #000000; stroke-width: 0.6"/><text style="font-size: 10px; font-family: sans-serif; text-anchor: middle" x="19.1" y="120.7" transform="rotate(-90 19.1 120.7)">KiB</text><path d="M 70.3 185.2 L 171 163.7 L 271.7 142.2 L 372.4 120.7 L 473.1 99.2" style="fill: none; stroke: #2a9d8f; stroke-width: 1.5; stroke-linecap: square"/><defs><path id="m8c8c904d52" d="M 0 3 C 0.8 3 1.6 2.7 2.1 2.1 C 2.7 1.6 3 0.8 3 0 C 3 -0.8 2.7 -1.6 2.1 -2.1 C 1.6 -2.7 0.8 -3 0 -3 C -0.8 -3 -1.6 -2.7 -2.1 -2.1 C -2.7 -1.6 -3 -0.8 -3 0 C -3 0.8 -2.7 1.6 -2.1 2.1 C -1.6 2.7 -0.8 3 0 3 z" style="stroke: #2a9d8f"/></defs><use xlink:href="#m8c8c904d52" x="70.3" y="185.2" style="fill: #2a9d8f; stroke: #2a9d8f"/><use xlink:href="#m8c8c904d52" x="171" y="163.7" style="fill: #2a9d8f; stroke: #2a9d8f"/><use xlink:href="#m8c8c904d52" x="271.7" y="142.2" style="fill: #2a9d8f; stroke: #2a9d8f"/><use xlink:href="#m8c8c904d52" x="372.4" y="120.7" style="fill: #2a9d8f; stroke: #2a9d8f"/><use xlink:href="#m8c8c904d52" x="473.1" y="99.2" style="fill: #2a9d8f; stroke: #2a9d8f"/><path d="M 70.3 206.7 L 171 163.7 L 271.7 120.7 L 372.4 77.7 L 473.1 34.8" style="fill: none; stroke-dasharray: 5.55,2.4; stroke-dashoffset: 0; stroke: #e76f51; stroke-width: 1.5"/><defs><path id="maeebb965ca" d="M -3 3 L 3 3 L 3 -3 L -3 -3 z" style="stroke: #e76f51; stroke-linejoin: miter"/></defs><use xlink:href="#maeebb965ca" x="70.3" y="206.7" style="fill: #e76f51; stroke: #e76f51; stroke-linejoin: miter"/><use xlink:href="#maeebb965ca" x="171" y="163.7" style="fill: #e76f51; stroke: #e76f51; stroke-linejoin: miter"/><use xlink:href="#maeebb965ca" x="271.7" y="120.7" style="fill: #e76f51; stroke: #e76f51; stroke-linejoin: miter"/><use xlink:href="#maeebb965ca" x="372.4" y="77.7" style="fill: #e76f51; stroke: #e76f51; stroke-linejoin: miter"/><use xlink:href="#maeebb965ca" x="473.1" y="34.8" style="fill: #e76f51; stroke: #e76f51; stroke-linejoin: miter"/><path d="M 50.1 118.6 L 493.2 118.6" style="fill: none; stroke-dasharray: 1.5,2.475; stroke-dashoffset: 0; stroke: #264653; stroke-width: 1.5"/><path d="M 50.1 215.3 L 50.1 26.2" style="fill: none; stroke: #000000; stroke-width: 0.8; stroke-linejoin: miter; stroke-linecap: square"/><path d="M 493.2 215.3 L 493.2 26.2" style="fill: none; stroke: #000000; stroke-width: 0.8; stroke-linejoin: miter; stroke-linecap: square"/><path d="M 50.1 215.3 L 493.2 215.3" style="fill: none; stroke: #000000; stroke-width: 0.8; stroke-linejoin: miter; stroke-linecap: square"/><path d="M 50.1 26.2 L 493.2 26.2" style="fill: none; stroke: #000000; stroke-width: 0.8; stroke-linejoin: miter; stroke-linecap: square"/><text style="font-size: 12px; font-family: sans-serif; text-anchor: middle" x="271.7" y="20.2">Memory vs sequence length</text><path d="M 55.7 68.6 L 225.8 68.6 Q 227.4 68.6 227.4 67 L 227.4 31.8 Q 227.4 30.2 225.8 30.2 L 55.7 30.2 Q 54.1 30.2 54.1 31.8 L 54.1 67 Q 54.1 68.6 55.7 68.6 z" style="fill: #ffffff; opacity: 0.8; stroke: #cccccc; stroke-linejoin: miter"/><path d="M 57.3 36.6 L 65.3 36.6 L 73.3 36.6" style="fill: none; stroke: #2a9d8f; stroke-width: 1.5; stroke-linecap: square"/><use xlink:href="#m8c8c904d52" x="65.3" y="36.6" style="fill: #2a9d8f; stroke: #2a9d8f"/><text style="font-size: 8px; font-family: sans-serif; text-anchor: start" x="79.7" y="39.4">KV cache (measured)</text><path d="M 57.3 48.6 L 65.3 48.6 L 73.3 48.6" style="fill: none; stroke-dasharray: 5.55,2.4; stroke-dashoffset: 0; stroke: #e76f51; stroke-width: 1.5"/><use xlink:href="#maeebb965ca" x="65.3" y="48.6" style="fill: #e76f51; stroke: #e76f51; stroke-linejoin: miter"/><text style="font-size: 8px; font-family: sans-serif; text-anchor: start" x="79.7" y="51.4">attn scores per layer, no-cache step</text><path d="M 57.3 60.6 L 65.3 60.6 L 73.3 60.6" style="fill: none; stroke-dasharray: 1.5,2.475; stroke-dashoffset: 0; stroke: #264653; stroke-width: 1.5"/><text style="font-size: 8px; font-family: sans-serif; text-anchor: start" x="79.7" y="63.4">model params</text></svg>
